# xmcd
#
# Track frame offsets:
#	150
#	11762
#	22643
#	32742
#	46644
#	58240
#	67260
#	82459
#	93971
#	102166
#	115134
#	126887
#	138295
#	149196
#	159985
#	168650
#
# Disc length: 2424 seconds
#
# Revision: 1
# Processed by: cddbd v1.5.2PL0 Copyright (c) Steve Scherf et al.
# Submitted via: audiograbber 1.82.02
#
DISCID=df097610
DTITLE=Sandy Posey - The very best of Sandy Posey
DYEAR=1966
DGENRE=
TTITLE0=The single girl
TTITLE1=I take it back
TTITLE2=What a woman in love won´t do
TTITLE3=Just out of reach
TTITLE4=It´s all in the game
TTITLE5=Hey Mister
TTITLE6=Don´t touch me
TTITLE7=I´ve been loving you too long (to stop now)
TTITLE8=Born woman
TTITLE9=Sunglasses
TTITLE10=Twelfth of never
TTITLE11=Satin pillows
TTITLE12=Arms full of sin
TTITLE13=Here comes my baby back again
TTITLE14=Blue is my best coulor
TTITLE15=Are you coming home
EXTD=
EXTT0=
EXTT1=
EXTT2=
EXTT3=
EXTT4=
EXTT5=
EXTT6=
EXTT7=
EXTT8=
EXTT9=
EXTT10=
EXTT11=
EXTT12=
EXTT13=
EXTT14=
EXTT15=
PLAYORDER=
